<svg xmlns="http://www.w3.org/2000/svg" version="1.1" width="512" height="512">
<path d="M0 0 C0.7704933 -0.00465992 1.54098659 -0.00931984 2.33482817 -0.01412097 C4.92596686 -0.02610614 7.5165846 -0.01666209 10.107728 -0.00736332 C11.98042975 -0.01153469 13.85312896 -0.01701113 15.72582346 -0.02368313 C20.87930766 -0.03818218 26.03263255 -0.03387911 31.18612564 -0.02651632 C36.74109373 -0.02179797 42.29602668 -0.03428265 47.85098362 -0.04453373 C58.7363678 -0.06175315 69.62169433 -0.06255524 80.50708859 -0.05732083 C89.35227191 -0.05328382 98.19743816 -0.0547171 107.04262066 -0.06006908 C108.30022487 -0.06081751 109.55782909 -0.06156593 110.85354253 -0.06233703 C113.40813847 -0.06386846 115.96273442 -0.06540681 118.51733036 -0.066952 C135.67614434 -0.07678479 152.83495181 -0.08094024 169.99376678 -0.07332611 C170.66490395 -0.07302894 171.33604112 -0.07273176 172.02751578 -0.07242559 C177.47782591 -0.06997658 182.92813597 -0.06736503 188.37844602 -0.06474145 C209.64017047 -0.05463827 230.90181596 -0.06299494 252.1635294 -0.086236 C276.04539348 -0.11229883 299.92721034 -0.12510965 323.80909353 -0.11804825 C336.45633111 -0.11455053 349.10350383 -0.11682449 361.75073147 -0.13429928 C372.51681771 -0.14899 383.28279341 -0.14969772 394.04887741 -0.13222837 C399.54427282 -0.12369027 405.03947052 -0.12163721 410.53485584 -0.13687992 C415.56269938 -0.15065343 420.59017446 -0.14605884 425.61799628 -0.12664068 C427.43960933 -0.12285773 429.26125139 -0.12586816 431.08283877 -0.13625234 C433.55454936 -0.14934378 436.02497341 -0.13791003 438.49662781 -0.12025452 C439.20780932 -0.12990503 439.91899083 -0.13955554 440.6517233 -0.14949849 C445.64189178 -0.07605171 448.45444944 1.27630252 452.31123447 4.38031673 C455.37365899 8.23978364 455.69165435 11.21659674 455.71237278 16.07790279 C455.71916945 16.73806587 455.72596612 17.39822895 455.73296875 18.07839698 C455.75190854 20.28312105 455.74950613 22.48728806 455.74702549 24.69208431 C455.75600514 26.27588774 455.76621386 27.85968461 455.77755833 29.44347286 C455.80404326 33.7411327 455.81109119 38.03861331 455.81300569 42.33634686 C455.81513937 45.02314345 455.82154645 47.70989459 455.82949734 50.39667988 C455.85724699 59.77512533 455.86950348 69.15344292 455.86714268 78.53192806 C455.86534098 87.265678 455.89698545 95.99887164 455.94437367 104.73248082 C455.98364057 112.23755432 455.99969267 119.74244631 455.99777645 127.24762172 C455.99701259 131.72713448 456.00550409 136.2061529 456.0373106 140.68556309 C456.06642337 144.90064813 456.06654617 149.11476867 456.0447607 153.32988834 C456.0416315 154.8729891 456.04866301 156.41615062 456.06684208 157.95914745 C456.22194884 172.04127419 456.22194884 172.04127419 450.90789127 177.84721851 C450.38099453 178.35314093 449.85409779 178.85906334 449.31123447 179.38031673 C448.25265774 180.52283873 447.19513488 181.66633895 446.13911533 182.81122494 C445.02344646 183.93982336 443.90225222 185.0629819 442.77607822 186.18109798 C442.17493702 186.78415264 441.57379581 187.3872073 440.95443821 188.00853634 C439.69553424 189.26878939 438.43414905 190.52656849 437.17036533 191.78192806 C435.24294251 193.69857632 433.32650901 195.62575265 431.41084385 197.55414486 C430.17906319 198.7846048 428.94666274 200.01444468 427.71357822 201.24359798 C427.14574116 201.81548351 426.57790409 202.38736904 425.99285984 202.97658443 C425.45202259 203.51111736 424.91118534 204.04565029 424.35395908 204.59638119 C423.65163403 205.29631947 423.65163403 205.29631947 422.93512058 206.01039791 C418.54612278 209.71297944 415.312301 210.75601937 409.56509781 210.76622009 C408.89650613 210.7714792 408.22791445 210.77673832 407.53906241 210.7821568 C405.29453235 210.79613343 403.05058562 210.78874203 400.80603123 210.78145504 C399.18224131 210.78705919 397.55845543 210.79396124 395.93467599 210.80205101 C391.46915122 210.82042679 387.00379476 210.82000173 382.53824079 210.81646788 C377.72351657 210.8158564 372.90884668 210.83240691 368.09414768 210.84664059 C358.65992877 210.87157383 349.22576608 210.87980572 339.79151698 210.88147772 C332.12388509 210.88290256 324.45627177 210.88906359 316.78864574 210.8985796 C295.05571617 210.92500313 273.32283107 210.93883713 251.58988532 210.93658818 C250.41793786 210.93646831 249.24599041 210.93634844 248.0385294 210.93622494 C246.86515317 210.9361023 245.69177694 210.93597965 244.48284385 210.9358533 C225.46396886 210.93463378 206.44527201 210.9633445 187.42644855 211.00564004 C167.90414467 211.04871313 148.38192771 211.0694516 128.85957509 211.06685871 C117.89678763 211.06586216 106.93418693 211.07413104 95.97144222 211.10639286 C86.6378058 211.13368412 77.30444078 211.14025355 67.97078177 211.11986459 C63.20816422 211.1100565 58.44606761 211.10994206 53.68349934 211.13592434 C49.32274747 211.15946992 44.96293102 211.15527879 40.60220245 211.12907194 C39.02549985 211.12445573 37.44872803 211.12995831 35.87210705 211.14665217 C21.62432134 211.28751047 21.62432134 211.28751047 15.8377865 205.97651809 C15.33402433 205.44977165 14.83026216 204.9230252 14.31123447 204.38031673 C13.16890834 203.32152865 12.02543098 202.26397997 10.88032627 201.20819759 C9.75172785 200.09252872 8.6285693 198.97133448 7.51045322 197.84516048 C6.90739857 197.24401928 6.30434391 196.64287807 5.68301487 196.02352047 C4.42276182 194.7646165 3.16498272 193.50323131 1.90962315 192.23944759 C-0.00702511 190.31202477 -1.93420144 188.39559127 -3.86259365 186.47992611 C-5.09305359 185.24814545 -6.32289347 184.015745 -7.55204678 182.78266048 C-8.40987507 181.93090488 -8.40987507 181.93090488 -9.28503323 181.0619421 C-9.81956615 180.52110485 -10.35409908 179.9802676 -10.90482998 179.42304134 C-11.3714555 178.95482464 -11.83808102 178.48660793 -12.3188467 178.00420284 C-16.01005966 173.62868121 -17.06466903 170.39903932 -17.07644558 164.66927242 C-17.08183112 164.00769821 -17.08721666 163.346124 -17.09276539 162.66450208 C-17.10703477 160.45508062 -17.09994416 158.24625915 -17.09281826 156.03681087 C-17.09852239 154.44976477 -17.10548682 152.86272276 -17.11361599 151.27568722 C-17.13155795 146.96987346 -17.13037708 142.66426338 -17.1246736 138.35842347 C-17.12158322 134.76245323 -17.12767254 131.1665222 -17.13371235 127.57055753 C-17.1477594 119.08661923 -17.14619483 110.60278161 -17.13481045 102.11884212 C-17.12332899 93.36926407 -17.13740488 84.61999252 -17.16420692 75.87045485 C-17.18636519 68.3552262 -17.19300102 60.84009376 -17.18713051 53.32483476 C-17.18376003 48.83768527 -17.186182 44.35073226 -17.20338154 39.86361027 C-17.21885066 35.64375946 -17.21489573 31.42436263 -17.19607639 27.20452976 C-17.19239039 25.65737908 -17.19549939 24.11019476 -17.20596218 22.56307507 C-17.21917421 20.44764273 -17.20762545 18.33371292 -17.18997097 16.21834469 C-17.18976169 15.03572583 -17.1895524 13.85310698 -17.18933678 12.63465118 C-16.44348131 7.78566487 -14.42071085 4.70107998 -10.52673995 1.73157883 C-6.96585007 0.03611059 -3.86051325 -0.03645405 0 0 Z " fill="#333E73" transform="translate(36.68876552581787,301.61968326568604)"/>
<path d="M0 0 C1.10004126 -0.00843994 2.20008252 -0.01687988 3.33345836 -0.02557558 C4.5365592 -0.01956553 5.73966004 -0.01355549 6.97921848 -0.00736332 C8.26149265 -0.01274886 9.54376682 -0.01813439 10.86489779 -0.02368313 C14.42218438 -0.03815421 17.97923961 -0.03388793 21.53653896 -0.02651632 C25.37370638 -0.02179104 29.21082329 -0.03428881 33.04797459 -0.04453373 C40.56448038 -0.06173959 48.08090264 -0.06255806 55.59742301 -0.05732083 C61.70614783 -0.05328126 67.81484795 -0.05472014 73.92357159 -0.06006908 C75.22715205 -0.06119172 75.22715205 -0.06119172 76.55706747 -0.06233703 C78.32248342 -0.06386849 80.08789936 -0.06540684 81.8533153 -0.066952 C98.41316797 -0.08068347 114.97297341 -0.07523478 131.532825 -0.06376678 C146.68603872 -0.05383344 161.83913035 -0.06677566 176.99232524 -0.09070098 C192.54827593 -0.11507733 208.10416973 -0.12470347 223.66013914 -0.11804825 C232.39499306 -0.11455281 241.12975306 -0.11680952 249.86459255 -0.13429928 C257.30029563 -0.14900297 264.73583865 -0.14968078 272.17153852 -0.13222837 C275.9657411 -0.12370083 279.75965756 -0.12161125 283.55384541 -0.13687992 C287.66584037 -0.15322276 291.77714157 -0.13861481 295.88913059 -0.12088871 C297.69043577 -0.13529622 297.69043577 -0.13529622 299.52813095 -0.14999479 C305.62289264 -0.09574746 309.85834509 -0.03028956 314.49766636 4.38031673 C317.99959997 8.56560517 317.92436253 12.755695 317.88534641 17.98955441 C317.89342472 19.28818215 317.89342472 19.28818215 317.90166622 20.6130448 C317.91597122 23.51339666 317.90883579 26.41329376 317.90171909 29.31366634 C317.90742132 31.39331587 317.91438501 33.47296227 317.92251682 35.55260372 C317.94047945 41.20133571 317.939274 46.84991263 317.93357444 52.49866462 C317.93048711 57.21302906 317.93656995 61.92736351 317.94261318 66.64172369 C317.95666697 77.76253977 317.95508997 88.88327905 317.94371128 100.00409603 C317.93222858 111.48022532 317.94630646 122.95612095 317.97310776 134.43221945 C317.99525241 144.28288004 318.00190493 154.13346722 317.99603134 163.98415095 C317.9926577 169.86856655 317.995104 175.75283236 318.01228237 181.63722706 C318.02772969 187.17028202 318.02382035 192.70299038 318.00497723 198.23603153 C318.00128525 200.26694961 318.00441746 202.29789324 318.01486301 204.3287878 C318.02803285 207.10095835 318.01656096 209.87197471 317.9988718 212.64409542 C318.00847681 213.44808881 318.01808182 214.2520822 318.02797788 215.08043903 C317.95943601 220.29979409 316.89870397 223.20978184 313.49766636 227.38031673 C308.84159314 231.62876218 302.97791246 230.76189677 297.04136753 230.68573666 C295.30390514 230.68174862 295.30390514 230.68174862 293.53134251 230.67768002 C291.01754595 230.67072739 288.50376087 230.65730317 285.99002743 230.63818073 C282.00935453 230.6105685 278.02901468 230.60485964 274.04827976 230.60768795 C262.73067601 230.61199928 251.41342794 230.58865915 240.09605503 230.51434994 C233.84086255 230.47351916 227.58628085 230.46141891 221.33097726 230.48058683 C218.02470115 230.48939226 214.72030955 230.47858647 211.41419125 230.44097614 C207.72251528 230.40009901 204.03393156 230.40856074 200.34214878 230.42792416 C199.25667759 230.40379955 198.1712064 230.37967495 197.05284214 230.3548193 C191.29749443 230.44043363 188.15371703 231.07091769 183.98004246 235.18593502 C182.79094986 236.56007355 181.62911986 237.95834244 180.49766636 239.38031673 C179.31370165 240.73757543 178.12668595 242.09218552 176.93516636 243.44281673 C176.37055698 244.10023861 175.80594761 244.75766048 175.22422886 245.43500423 C172.94594485 248.00193961 170.50935008 250.38420504 168.05626011 252.78266048 C166.32064736 254.5005741 166.32064736 254.5005741 164.37266636 257.13031673 C161.59924733 260.45841957 158.93444618 262.14542085 154.63047886 262.84906673 C148.84129591 262.90921409 144.57098345 262.85487004 140.06797886 258.99359798 C137.71267447 256.57384497 135.48388346 254.07305435 133.31407261 251.48578548 C131.46401984 249.34131571 129.51931039 247.36300808 127.49766636 245.38031673 C124.13771184 242.07265723 121.00952749 238.62439648 117.94297886 235.04437923 C115.68499986 232.20373024 115.68499986 232.20373024 112.3942461 231.12977695 C111.51896133 231.12944147 110.64367657 231.12910599 109.74186802 231.12876034 C108.73809116 231.12337749 107.73431431 231.11799465 106.70011997 231.11244869 C105.04191227 231.11863468 105.04191227 231.11863468 103.35020542 231.12494564 C102.18912266 231.12132519 101.02803989 231.11770473 99.8317728 231.11397457 C97.30321891 231.10706601 94.77465005 231.10457785 92.24608707 231.10592175 C88.24521524 231.10688358 84.24452056 231.09441252 80.24369907 231.07694149 C68.86581696 231.02989071 57.48794608 231.00598197 46.10997105 230.99945736 C39.8281561 230.995703 33.54654071 230.97764092 27.26481128 230.944363 C23.94121745 230.92747646 20.61806833 230.92066731 17.29442692 230.92730236 C13.58354691 230.93436132 9.87350612 230.91711192 6.16270542 230.89447689 C4.5166431 230.90673557 4.5166431 230.90673557 2.837327 230.91924191 C-3.07506617 230.85503925 -6.96600348 230.58807014 -11.50233364 226.38031673 C-14.85469201 222.05064981 -14.92934099 218.04668227 -14.89001369 212.77107906 C-14.89539923 211.90532723 -14.90078477 211.0395754 -14.90633351 210.14758867 C-14.9206385 207.24723681 -14.91350308 204.34733971 -14.90638638 201.44696712 C-14.9120886 199.36731759 -14.91905229 197.2876712 -14.9271841 195.20802975 C-14.94514673 189.55929776 -14.94394128 183.91072084 -14.93824172 178.26196885 C-14.9351544 173.54760441 -14.94123723 168.83326995 -14.94728047 164.11890978 C-14.96133425 152.9980937 -14.95975725 141.87735442 -14.94837856 130.75653744 C-14.93689587 119.28040815 -14.95097374 107.80451252 -14.97777504 96.32841402 C-14.99991969 86.47775343 -15.00657221 76.62716624 -15.00069863 66.77648252 C-14.99732498 60.89206692 -14.99977128 55.00780111 -15.01694965 49.12340641 C-15.03239697 43.59035145 -15.02848763 38.05764309 -15.00964451 32.52460194 C-15.00595254 30.49368386 -15.00908474 28.46274023 -15.0195303 26.43184566 C-15.03270013 23.65967512 -15.02122824 20.88865875 -15.00353909 18.11653805 C-15.01314409 17.31254466 -15.0227491 16.50855127 -15.03264517 15.68019444 C-14.96435902 10.480313 -14.01750992 7.45071507 -10.50233364 3.38031673 C-6.88731229 0.79908563 -4.42142011 0.00479623 0 0 Z " fill="#E5E8F2" transform="translate(104.50233364105225,-0.38031673431396484)"/>
<path d="M0 0 C56.68397857 -0.16121214 56.68397857 -0.16121214 80.3984375 -0.1953125 C85.81738328 -0.20316717 91.23632863 -0.21122591 96.65527344 -0.21972656 C97.33444919 -0.22078156 98.01362494 -0.22183655 98.71338177 -0.22292352 C109.67793602 -0.24032041 120.64240635 -0.27185545 131.60691084 -0.30861118 C142.8595955 -0.34601834 154.11223826 -0.36793596 165.36498821 -0.37635398 C171.68545758 -0.38157355 178.00573671 -0.3938608 184.32614517 -0.42292023 C190.27357649 -0.45004361 196.22073895 -0.4584511 202.16822624 -0.45243073 C204.35234856 -0.45353233 206.53647975 -0.4615043 208.72054863 -0.4768219 C211.70092214 -0.49670122 214.68027837 -0.49194627 217.66067505 -0.48101807 C218.95932737 -0.49849512 218.95932737 -0.49849512 220.28421509 -0.51632524 C225.64983685 -0.46308732 228.81397628 0.33060855 233 4 C236.06242452 7.8594669 236.38041988 10.83628 236.40113831 15.69758606 C236.40793498 16.35774914 236.41473164 17.01791222 236.42173427 17.69808024 C236.44067407 19.90280431 236.43827166 22.10697133 236.43579102 24.31176758 C236.44477067 25.89557101 236.45497939 27.47936787 236.46632385 29.06315613 C236.49280879 33.36081597 236.49985671 37.65829657 236.50177121 41.95603013 C236.5039049 44.64282672 236.51031197 47.32957786 236.51826286 50.01636314 C236.54601251 59.39480859 236.55826901 68.77312619 236.5559082 78.15161133 C236.55410651 86.88536126 236.58575097 95.6185549 236.63313919 104.35216409 C236.67240609 111.85723759 236.68845819 119.36212958 236.68654197 126.86730498 C236.68577812 131.34681775 236.69426962 135.82583616 236.72607613 140.30524635 C236.7551889 144.52033139 236.75531169 148.73445193 236.73352623 152.94957161 C236.73039702 154.49267236 236.73742854 156.03583388 236.7556076 157.57883072 C236.91071437 171.66095745 236.91071437 171.66095745 231.5966568 177.46690178 C230.80631168 178.2257854 230.80631168 178.2257854 230 179 C228.94142327 180.142522 227.88390041 181.28602221 226.82788086 182.4309082 C225.71221198 183.55950662 224.59101775 184.68266517 223.46484375 185.80078125 C222.86370255 186.40383591 222.26256134 187.00689056 221.64320374 187.6282196 C220.38429976 188.88847265 219.12291458 190.14625175 217.85913086 191.40161133 C215.93170804 193.31825958 214.01527454 195.24543592 212.09960938 197.17382812 C210.86782871 198.40428807 209.63542826 199.63412794 208.40234375 200.86328125 C207.83450668 201.43516678 207.26666962 202.00705231 206.68162537 202.5962677 C206.14078812 203.13080063 205.59995087 203.66533356 205.04272461 204.21606445 C204.5745079 204.68268997 204.1062912 205.14931549 203.62388611 205.63008118 C198.87429372 209.63686218 195.03042086 210.43177522 188.91984558 210.36076355 C188.11111364 210.36332682 187.3023817 210.3658901 186.46914274 210.36853105 C183.76202123 210.37346842 181.05545871 210.3569769 178.34838867 210.34057617 C176.40678928 210.33972989 174.46518892 210.34020506 172.52359009 210.34190369 C167.25330907 210.34276502 161.98323256 210.32511685 156.71299911 210.30418181 C151.20502364 210.28543805 145.69704358 210.28366638 140.18904114 210.28010559 C129.75916003 210.27077838 119.32937316 210.24615538 108.89953357 210.21605712 C97.02541255 210.18253421 85.15128704 210.1660324 73.27713048 210.15097082 C48.85135602 210.11960645 24.42571077 210.06458586 0 210 C0 190.2 0 170.4 0 150 C17.125 149.75 17.125 149.75 22.49658203 149.70214844 C23.91702473 149.6727567 25.33743871 149.64192698 26.7578125 149.609375 C27.84533813 149.60768311 27.84533813 149.60768311 28.95483398 149.60595703 C34.09209956 149.4625264 37.01856503 148.20517095 41 145 C44.38570467 141.16286804 44.51291172 137.36598538 44.3515625 132.4375 C43.82577497 128.79203982 42.44465904 126.7089465 40 124 C28.509737 117.1058422 13.39436819 120.38269623 0 120 C0 80.4 0 40.8 0 0 Z " fill="#1F2859" transform="translate(256,302)"/>
<path d="M0 0 C0.64538984 -0.00256327 1.29077969 -0.00512655 1.9557268 -0.0077675 C4.11012064 -0.01269405 6.26380774 0.00376784 8.4181366 0.02018738 C9.9656523 0.0210339 11.5131692 0.02055802 13.0606842 0.01885986 C17.25664107 0.01799946 21.45234042 0.03563249 25.64823747 0.05658174 C30.0351215 0.07534099 34.42201149 0.07709838 38.80892944 0.08065796 C47.11386417 0.08998063 55.41868036 0.11459743 63.7235629 0.14470643 C73.17934679 0.17824351 82.63513635 0.19473471 92.09096491 0.20979273 C111.54017722 0.24114678 130.98927921 0.29391161 150.43840027 0.36076355 C153.92407383 54.84869051 151.372886 94.03975119 121.62171936 141.18104553 C116.62187281 149.20627571 116.62187281 149.20627571 116.43840027 158.36076355 C117.64090655 162.75344827 119.50346704 165.68081211 123.18840027 168.36076355 C128.85194539 170.10339282 132.67549988 170.01811624 138.12590027 167.98576355 C142.07942231 165.505827 143.4847118 161.8072582 145.20011902 157.60295105 C146.43840027 155.36076355 146.43840027 155.36076355 150.43840027 153.36076355 C150.43840027 189.33076355 150.43840027 225.30076355 150.43840027 262.36076355 C144.13281056 262.36076355 141.87286563 261.37706661 137.43840027 257.36076355 C135.64236466 255.44635287 133.94154531 253.47748907 132.25480652 251.4662323 C130.40475374 249.32176253 128.4600443 247.3434549 126.43840027 245.36076355 C123.07844575 242.05310405 119.9502614 238.60484329 116.88371277 235.02482605 C114.62573377 232.18417706 114.62573377 232.18417706 111.33498001 231.11022377 C110.45969524 231.10988829 109.58441048 231.1095528 108.68260193 231.10920715 C107.67882507 231.10382431 106.67504822 231.09844147 105.64085388 231.09289551 C103.98264618 231.0990815 103.98264618 231.0990815 102.29093933 231.10539246 C101.12985657 231.101772 99.9687738 231.09815155 98.77250671 231.09442139 C96.24395282 231.08751283 93.71538396 231.08502467 91.18682098 231.08636856 C87.18594915 231.0873304 83.18525447 231.07485934 79.18443298 231.05738831 C67.80655087 231.01033753 56.42867999 230.98642878 45.05070496 230.97990417 C38.76889001 230.97614982 32.48727461 230.95808773 26.20554519 230.92480981 C22.88195136 230.90792327 19.55880224 230.90111412 16.23516083 230.90774918 C12.52428082 230.91480814 8.81424003 230.89755873 5.10343933 230.87492371 C3.45737701 230.88718239 3.45737701 230.88718239 1.77806091 230.89968872 C-4.13433226 230.83548606 -8.02526957 230.56851695 -12.56159973 226.36076355 C-15.9139581 222.03109663 -15.98860708 218.02712909 -15.94927979 212.75152588 C-15.95466532 211.88577405 -15.96005086 211.02002222 -15.9655996 210.12803549 C-15.97990459 207.22768362 -15.97276917 204.32778652 -15.96565247 201.42741394 C-15.9713547 199.34776441 -15.97831838 197.26811801 -15.9864502 195.18847656 C-16.00441282 189.53974457 -16.00320737 183.89116766 -15.99750781 178.24241567 C-15.99442049 173.52805123 -16.00050332 168.81371677 -16.00654656 164.09935659 C-16.02060034 152.97854051 -16.01902334 141.85780124 -16.00764465 130.73698425 C-15.99616196 119.26085497 -16.01023983 107.78495933 -16.03704113 96.30886084 C-16.05918578 86.45820024 -16.0658383 76.60761306 -16.05996472 66.75692934 C-16.05659107 60.87251373 -16.05903737 54.98824792 -16.07621574 49.10385323 C-16.09166306 43.57079827 -16.08775372 38.03808991 -16.0689106 32.50504875 C-16.06521863 30.47413068 -16.06835083 28.44318705 -16.07879639 26.41229248 C-16.09196622 23.64012193 -16.08049433 20.86910557 -16.06280518 18.09698486 C-16.07241018 17.29299147 -16.08201519 16.48899808 -16.09191126 15.66064125 C-16.02362511 10.46075982 -15.07677601 7.43116188 -11.56159973 3.36076355 C-7.72899059 0.32656316 -4.82464635 -0.0115699 0 0 Z " fill="#FEF4F5" transform="translate(105.56159973144531,-0.3607635498046875)"/>
<path d="M0 0 C4.56241034 2.10178454 8.20703867 5.25392588 10 10 C11.74906527 19.51257265 7.09452296 27.11462475 2.87890625 35.25390625 C2.13647452 36.72260484 1.39577915 38.1921823 0.65672302 39.6625824 C-1.28996 43.52358237 -3.26063599 47.37183304 -5.23651123 51.21795654 C-7.21397938 55.07832571 -9.1671135 58.95095526 -11.12304688 62.82226562 C-14.69138772 69.8713672 -18.26088866 76.91969833 -21.9069519 83.9289856 C-23.39816305 86.80215221 -24.82929893 89.69869638 -26.23880005 92.61276245 C-26.99887713 94.14162317 -27.75919615 95.67036364 -28.51977539 97.19897461 C-28.84986068 97.90541642 -29.17994596 98.61185823 -29.52003384 99.33970737 C-32.18570269 104.61247253 -35.56838621 107.6123569 -41 110 C-45.17920512 110.9132707 -48.90144406 110.32991039 -52.75 108.5 C-56.66325343 105.95683301 -58.8210093 102.48162924 -60 98 C-60.49604104 91.41255947 -59.23766187 87.30659429 -56.27148438 81.47607422 C-55.87468475 80.66524384 -55.47788513 79.85441345 -55.06906128 79.01901245 C-53.76010299 76.35589961 -52.42807242 73.70517197 -51.09375 71.0546875 C-50.17044569 69.19760136 -49.24797316 67.34010147 -48.32629395 65.48220825 C-46.39318179 61.59519737 -44.4482446 57.71439239 -42.49511719 53.83740234 C-40.00027437 48.88206525 -37.53831937 43.91121178 -35.08541107 38.93501091 C-33.18815764 35.09646201 -31.27217535 31.26749778 -29.35066223 27.44104385 C-28.43560109 25.61255589 -27.52664146 23.78100061 -26.62406921 21.94631577 C-25.35634787 19.37581397 -24.06350262 16.81951938 -22.76367188 14.26513672 C-22.21771866 13.13815369 -22.21771866 13.13815369 -21.66073608 11.98840332 C-17.12947175 3.24058231 -10.05681714 -2.19481026 0 0 Z " fill="#6BAAFE" transform="translate(281,60)"/>
<path d="M0 0 C7.00752731 3.95011246 12.63088724 10.29098482 18.26538086 15.94970703 C19.81828367 17.50579553 21.38414182 19.04799767 22.95117188 20.58984375 C23.95393454 21.59033511 24.9559158 22.5916104 25.95703125 23.59375 C26.85397705 24.48771484 27.75092285 25.38167969 28.67504883 26.30273438 C31.93441335 30.084049 33.79415423 33.41204693 34.4375 38.375 C33.2331837 48.35362077 26.16130884 54.43089958 19.34667969 61.11987305 C17.6238496 62.81363099 15.9205854 64.52540974 14.21875 66.24023438 C13.11829773 67.33445102 12.01677091 68.42758829 10.9140625 69.51953125 C10.41073395 70.02579544 9.9074054 70.53205963 9.38882446 71.05366516 C4.88393369 75.44126095 0.4084627 78.42723003 -6 78.4375 C-10.71039506 78.28166738 -13.43152073 77.22033495 -17 74 C-20.54485768 70.10065655 -20.63425088 65.83428624 -20.46484375 60.765625 C-19.67046256 56.03939067 -17.27221249 53.36807809 -14 50 C-13.13375 49.10410156 -12.2675 48.20820312 -11.375 47.28515625 C-8.94564828 44.82474747 -6.48869998 42.40016915 -4 40 C-5.82458146 35.41155551 -9.42356377 32.47057887 -12.92382812 29.15429688 C-16.62228475 25.57562832 -19.5947075 22.50843193 -20.43359375 17.31640625 C-20.44199545 11.39320556 -20.20914447 7.55042646 -16 3 C-11.65958753 -0.94582952 -5.54208882 -1.27230833 0 0 Z " fill="#6BA9FE" transform="translate(328,76)"/>
<path d="M0 0 C3.86305672 1.28768557 5.61548475 2.58512828 8.375 5.5625 C10.51497702 10.08937446 10.98312675 14.07713739 10 19 C7.37978036 24.45255231 4.10123467 28.28925355 -0.25 32.4375 C-0.80429688 32.97826172 -1.35859375 33.51902344 -1.9296875 34.07617188 C-3.27960949 35.39118209 -4.63884028 36.69662536 -6 38 C-4.17541854 42.58844449 -0.57643623 45.52942113 2.92382812 48.84570312 C6.50490469 52.31079341 9.53762456 55.40903129 10.43359375 60.4296875 C10.44328648 66.49733559 9.75861751 70.15336164 6 75 C1.80905036 78.09331997 -2.19880258 78.41676648 -7.2421875 78.69140625 C-15.71978722 76.56600235 -22.27014296 68.07131067 -28.26538086 62.05029297 C-29.81828367 60.49420447 -31.38414182 58.95200233 -32.95117188 57.41015625 C-33.95393454 56.40966489 -34.9559158 55.4083896 -35.95703125 54.40625 C-36.85397705 53.51228516 -37.75092285 52.61832031 -38.67504883 51.69726562 C-42.51728596 47.23973797 -44.70204478 43.04971991 -44.39257812 37.03833008 C-42.76431863 28.58413945 -34.52233672 22.09545488 -28.64355469 16.30737305 C-26.99487497 14.68244881 -25.36009389 13.04443482 -23.7265625 11.40429688 C-22.6726667 10.35597433 -21.61800539 9.30842067 -20.5625 8.26171875 C-19.83728149 7.53513313 -19.83728149 7.53513313 -19.09741211 6.79386902 C-12.95049187 0.77323069 -8.46183758 -0.97793307 0 0 Z " fill="#7FD8F5" transform="translate(194,76)"/>
<path d="M0 0 C0.33 0 0.66 0 1 0 C1.34242211 8.31056385 1.63180747 16.62071412 1.85746098 24.93518734 C1.96388029 28.79796003 2.08708711 32.6585221 2.25170898 36.51928711 C3.66402669 70.23167693 3.66402669 70.23167693 -5.51296997 81.54470825 C-9.29016539 85.24128547 -13.69142861 88.26167029 -19.0625 88.5625 C-24.32653511 87.81049498 -28.05728177 86.59029097 -31.32421875 82.234375 C-33.95140615 77.55152868 -34.5325188 73.35956257 -34 68 C-33.06387146 65.43002881 -32.13266944 63.24370968 -30.87890625 60.84960938 C-30.54728485 60.18519836 -30.21566345 59.52078735 -29.87399292 58.83624268 C-28.78517345 56.66413218 -27.67420689 54.50422266 -26.5625 52.34375 C-25.79881293 50.83131252 -25.03654531 49.31815755 -24.27563477 47.80432129 C-22.27748209 43.83843534 -20.26029393 39.88254158 -18.2388916 35.9284668 C-16.17624892 31.88528879 -14.13188792 27.83289264 -12.0859375 23.78125 C-8.07506129 15.84507439 -4.04400059 7.91934181 0 0 Z " fill="#7FD8F5" transform="translate(255,82)"/>
<path d="M0 0 C1.11714134 0.00848969 1.11714134 0.00848969 2.2568512 0.01715088 C4.61072005 0.0393515 6.96300595 0.0895113 9.31640625 0.140625 C10.92250389 0.16071134 12.52862565 0.17895836 14.13476562 0.1953125 C18.05056367 0.23574408 21.96298604 0.31405079 25.87890625 0.390625 C25.87890625 10.290625 25.87890625 20.190625 25.87890625 30.390625 C21.18170109 30.50600395 16.48949042 30.60534167 11.79199219 30.6652832 C10.19742089 30.69028913 8.6029626 30.72430599 7.00878906 30.76782227 C-8.95305668 31.19233944 -8.95305668 31.19233944 -14.79101562 26.80297852 C-18.11604558 23.27227032 -18.97324878 19.57338476 -19.55859375 14.890625 C-19.03422634 10.69568569 -18.02640716 7.51438302 -15.12109375 4.390625 C-9.98539454 0.93287429 -6.23624802 -0.18195584 0 0 Z " fill="#4C568B" transform="translate(230.12109375,421.609375)"/>
<path d="M0 0 C0.81210937 -0.02835937 1.62421875 -0.05671875 2.4609375 -0.0859375 C8.64425652 -0.10575583 12.87414974 1.50631199 17.625 5.5 C20.31432285 9.28186025 21.2365897 12.7323531 21.0390625 17.41015625 C20.26178121 21.33322692 18.37150558 24.61936275 15.625 27.5 C10.56469699 30.81510815 6.10662505 31.01841706 0.25 31 C-0.56210937 31.02835937 -1.37421875 31.05671875 -2.2109375 31.0859375 C-8.39425652 31.10575583 -12.62414974 29.49368801 -17.375 25.5 C-20.06432285 21.71813975 -20.9865897 18.2676469 -20.7890625 13.58984375 C-20.01178121 9.66677308 -18.12150558 6.38063725 -15.375 3.5 C-10.31469699 0.18489185 -5.85662505 -0.01841706 0 0 Z " fill="#323D72" transform="translate(411.375,361.5)"/>
<path d="M0 0 C0.75990234 -0.01546875 1.51980469 -0.0309375 2.30273438 -0.046875 C7.91245139 -0.00855072 12.43205896 1.25336117 17.0625 4.5 C20.37721449 8.34303985 21.81027216 12.2631704 21.5078125 17.4453125 C20.65975261 21.35829057 18.90274177 24.68472738 16.0625 27.5 C10.70836167 30.41131272 6.16870318 31.05010521 0.125 31 C-0.67043213 30.99427979 -1.46586426 30.98855957 -2.28540039 30.98266602 C-7.40059436 30.82622357 -11.48400982 30.37098864 -15.58984375 27.05078125 C-18.80755909 23.34807693 -19.77786327 19.77709385 -20.375 15 C-19.85063259 10.80506069 -18.84281341 7.62375802 -15.9375 4.5 C-10.52674585 0.69470952 -6.53869206 -0.13242921 0 0 Z " fill="#323D72" transform="translate(410.9375,421.5)"/>
<path d="M0 0 C1.14662109 -0.0299707 1.14662109 -0.0299707 2.31640625 -0.06054688 C7.95571138 -0.05575969 12.47713828 1.15131122 17.125 4.4375 C19.89781072 7.57518004 21.02077581 10.72095871 21.625 14.875 C21.01028418 19.25485021 20.0761051 23.06182553 17.125 26.4375 C11.67895999 30.14974212 6.62077224 31.12612481 0.125 31 C-1.06138062 30.9846521 -1.06138062 30.9846521 -2.27172852 30.96899414 C-7.35212743 30.78324781 -11.45280341 30.28318289 -15.52734375 26.98828125 C-18.72162905 23.31253846 -19.68751965 19.72642738 -20.375 15 C-19.72420361 10.36307569 -18.08425081 6.87065203 -14.875 3.4375 C-9.92554435 0.21888078 -5.71384896 -0.05246439 0 0 Z " fill="#4C568B" transform="translate(99.875,421.5625)"/>
<path d="M0 0 C1.14662109 -0.0299707 1.14662109 -0.0299707 2.31640625 -0.06054688 C7.95571138 -0.05575969 12.47713828 1.15131122 17.125 4.4375 C19.89781072 7.57518004 21.02077581 10.72095871 21.625 14.875 C21.01028418 19.25485021 20.0761051 23.06182553 17.125 26.4375 C11.67895999 30.14974212 6.62077224 31.12612481 0.125 31 C-1.06138062 30.9846521 -1.06138062 30.9846521 -2.27172852 30.96899414 C-7.35212743 30.78324781 -11.45280341 30.28318289 -15.52734375 26.98828125 C-18.72162905 23.31253846 -19.68751965 19.72642738 -20.375 15 C-19.72420361 10.36307569 -18.08425081 6.87065203 -14.875 3.4375 C-9.92554435 0.21888078 -5.71384896 -0.05246439 0 0 Z " fill="#4C568B" transform="translate(99.875,361.5625)"/>
<path d="M0 0 C4.14374812 2.29314216 6.33723536 4.938401 7.8125 9.4375 C8.65920027 15.36440186 7.73004948 18.83779359 4.29296875 23.73828125 C0.99772123 27.5204255 -2.21048764 28.31143389 -7.0625 28.9375 C-11.95473196 28.73091823 -15.54775373 26.60868123 -19.1875 23.4375 C-21.87682285 19.65563975 -22.7990897 16.2051469 -22.6015625 11.52734375 C-21.55665039 6.2534949 -18.65495061 2.45833521 -14.3125 -0.5625 C-9.07768302 -2.23764143 -5.03166659 -2.16576373 0 0 Z " fill="#323D72" transform="translate(293.1875,363.5625)"/>
<path d="M0 0 C4.36492736 2.40706674 5.93942071 4.83284673 7.8125 9.4375 C8.54520346 14.47483626 7.62027557 18.24512573 5.20703125 22.63671875 C1.9113554 26.89247944 -2.54684459 28.17382324 -7.6875 29 C-12.37661747 28.24639184 -15.64727219 26.60297396 -19.1875 23.4375 C-21.97287223 18.73718437 -22.86540686 14.86075487 -22.1875 9.4375 C-20.44294414 4.504976 -17.73316107 1.40475576 -13.0390625 -0.90234375 C-8.34602817 -2.57559861 -4.45447532 -1.90552555 0 0 Z " fill="#4C568B" transform="translate(233.1875,363.5625)"/>
<path d="M0 0 C4.52796859 2.57554177 7.18299745 4.981535 8.81640625 10.0859375 C9.47152072 15.13967773 8.62911848 18.88457955 6.2109375 23.28515625 C2.91526165 27.54091694 -1.54293834 28.82226074 -6.68359375 29.6484375 C-11.37271122 28.89482934 -14.64336594 27.25141146 -18.18359375 24.0859375 C-20.96315922 19.39542077 -21.94278361 15.49516523 -21.18359375 10.0859375 C-19.32715607 5.79391705 -17.19231136 2.8032478 -13.37109375 0.0859375 C-8.5557973 -1.42474374 -4.66937066 -1.95462028 0 0 Z " fill="#323D72" transform="translate(352.18359375,422.9140625)"/>
<path d="M0 0 C4.36492736 2.40706674 5.93942071 4.83284673 7.8125 9.4375 C8.54520346 14.47483626 7.62027557 18.24512573 5.20703125 22.63671875 C1.9113554 26.89247944 -2.54684459 28.17382324 -7.6875 29 C-12.37661747 28.24639184 -15.64727219 26.60297396 -19.1875 23.4375 C-21.96706547 18.74698327 -22.94668986 14.84672773 -22.1875 9.4375 C-20.31691018 5.1127603 -18.19271638 2.13678096 -14.3125 -0.5625 C-9.07768302 -2.23764143 -5.03166659 -2.16576373 0 0 Z " fill="#4C568B" transform="translate(173.1875,423.5625)"/>
<path d="M0 0 C4.36412356 2.5861473 6.42905656 5.35040062 8.375 10 C9.18225001 15.02288897 8.17978398 18.81306979 5.76953125 23.19921875 C2.4738554 27.45497944 -1.98434459 28.73632324 -7.125 29.5625 C-11.81411747 28.80889184 -15.08477219 27.16547396 -18.625 24 C-21.40456547 19.30948327 -22.38418986 15.40922773 -21.625 10 C-19.75441018 5.6752603 -17.63021638 2.69928096 -13.75 0 C-8.72951065 -1.60655659 -5.05974598 -1.39579199 0 0 Z " fill="#323D72" transform="translate(352.625,363)"/>
<path d="M0 0 C4.36492736 2.40706674 5.93942071 4.83284673 7.8125 9.4375 C8.54520346 14.47483626 7.62027557 18.24512573 5.20703125 22.63671875 C1.9113554 26.89247944 -2.54684459 28.17382324 -7.6875 29 C-12.37661747 28.24639184 -15.64727219 26.60297396 -19.1875 23.4375 C-21.97287223 18.73718437 -22.86540686 14.86075487 -22.1875 9.4375 C-20.44294414 4.504976 -17.73316107 1.40475576 -13.0390625 -0.90234375 C-8.34602817 -2.57559861 -4.45447532 -1.90552555 0 0 Z " fill="#4C568B" transform="translate(173.1875,363.5625)"/>
</svg>